<svg xmlns="http://www.w3.org/2000/svg" xmlns:xlink="http://www.w3.org/1999/xlink" width="500" zoomAndPan="magnify" viewBox="0 0 375 374.999991" height="500" preserveAspectRatio="xMidYMid meet" version="1.0"><defs><g/></defs><g fill="#ffb929" fill-opacity="1"><g transform="translate(134.55422, 262.928421)"><g><path d="M 27.4375 -54.84375 C 20.882812 -78.507812 16.070312 -95.550781 13 -105.96875 C 11.5 -110.84375 10.085938 -114.082031 8.765625 -115.6875 C 7.648438 -116.769531 5.710938 -117.394531 2.953125 -117.5625 C 2.816406 -117.539062 2.644531 -117.550781 2.4375 -117.59375 C 2.226562 -117.632812 1.988281 -117.632812 1.71875 -117.59375 C 1.457031 -117.550781 1.175781 -117.582031 0.875 -117.6875 C -0.375 -117.789062 -1.582031 -118.101562 -2.75 -118.625 C -3.914062 -119.144531 -4.804688 -120.117188 -5.421875 -121.546875 C -6.140625 -122.828125 -6.457031 -124.640625 -6.375 -126.984375 L -6.171875 -127.015625 L -6.203125 -127.21875 C -6.117188 -128.601562 -5.78125 -129.914062 -5.1875 -131.15625 C -4.601562 -132.40625 -3.691406 -133.457031 -2.453125 -134.3125 C -0.828125 -135.5 1.328125 -136.28125 4.015625 -136.65625 C 15.191406 -138.195312 23.734375 -137.515625 29.640625 -134.609375 C 35.847656 -131.359375 40.332031 -125.1875 43.09375 -116.09375 L 61.171875 -52.0625 L 73.640625 -82.625 L 91.4375 -126.859375 C 91.875 -127.734375 92.1875 -128.46875 92.375 -129.0625 C 91.414062 -129.070312 90.265625 -128.984375 88.921875 -128.796875 L 87.703125 -128.625 C 84.878906 -128.238281 82.609375 -128.742188 80.890625 -130.140625 C 80.421875 -130.628906 80.019531 -131.09375 79.6875 -131.53125 C 79.351562 -131.96875 79.085938 -132.375 78.890625 -132.75 C 78.691406 -133.132812 78.554688 -133.597656 78.484375 -134.140625 C 78.410156 -134.679688 78.390625 -135.09375 78.421875 -135.375 C 78.453125 -135.65625 78.46875 -136.066406 78.46875 -136.609375 C 78.46875 -137.160156 78.457031 -137.503906 78.4375 -137.640625 L 78.609375 -137.859375 C 78.710938 -140.078125 79.398438 -142.023438 80.671875 -143.703125 C 82.148438 -145.960938 84.164062 -147.269531 86.71875 -147.625 L 86.921875 -147.65625 C 95.597656 -148.4375 102.832031 -149.226562 108.625 -150.03125 C 111.1875 -150.382812 116.085938 -151.203125 123.328125 -152.484375 L 127.546875 -153.25 L 127.75 -153.28125 C 131.113281 -153.738281 133.664062 -152.644531 135.40625 -150 C 135.9375 -149.125 136.316406 -148.082031 136.546875 -146.875 C 136.785156 -145.664062 136.828125 -144.644531 136.671875 -143.8125 L 136.6875 -143.609375 L 136.71875 -143.40625 C 136.65625 -142.84375 136.601562 -142.453125 136.5625 -142.234375 C 136.53125 -142.023438 136.445312 -141.671875 136.3125 -141.171875 C 136.175781 -140.679688 136.054688 -140.289062 135.953125 -140 C 135.859375 -139.707031 135.703125 -139.335938 135.484375 -138.890625 C 135.265625 -138.453125 135.007812 -138.039062 134.71875 -137.65625 C 134.4375 -137.28125 134.113281 -136.929688 133.75 -136.609375 C 133.03125 -135.816406 132.179688 -135.253906 131.203125 -134.921875 C 130.222656 -134.585938 129.191406 -134.34375 128.109375 -134.1875 C 123.117188 -133.5 119.410156 -132.226562 116.984375 -130.375 C 114.566406 -128.53125 112.125 -125.113281 109.65625 -120.125 C 106.269531 -111.820312 101.332031 -99.882812 94.84375 -84.3125 C 91.914062 -77.582031 88.742188 -70.207031 85.328125 -62.1875 C 74.054688 -35.382812 65.832031 -15.863281 60.65625 -3.625 L 59.578125 -1 L 56.734375 -0.609375 L 47.234375 0.703125 L 42.796875 1.3125 L 41.578125 -3.046875 C 38.566406 -13.898438 33.851562 -31.164062 27.4375 -54.84375 Z M 27.4375 -54.84375 "/></g></g></g></svg>