<svg xmlns="http://www.w3.org/2000/svg" xmlns:xlink="http://www.w3.org/1999/xlink" width="500" zoomAndPan="magnify" viewBox="0 0 375 374.999991" height="500" preserveAspectRatio="xMidYMid meet" version="1.0"><defs><g/><clipPath id="05691ae74d"><path d="M 129 115 L 277 115 L 277 278 L 129 278 Z M 129 115 " clip-rule="nonzero"/></clipPath><clipPath id="d06aa40e95"><path d="M 90.613281 156.078125 L 188.523438 83.246094 L 284.117188 211.753906 L 186.207031 284.585938 Z M 90.613281 156.078125 " clip-rule="nonzero"/></clipPath><clipPath id="4972dfa49e"><path d="M 90.613281 156.078125 L 188.523438 83.246094 L 284.117188 211.753906 L 186.207031 284.585938 Z M 90.613281 156.078125 " clip-rule="nonzero"/></clipPath><clipPath id="85b33da2cf"><path d="M 90.613281 156.078125 L 188.523438 83.246094 L 284.117188 211.753906 L 186.207031 284.585938 Z M 90.613281 156.078125 " clip-rule="nonzero"/></clipPath><clipPath id="d5600f0406"><path d="M 181 180 L 262 180 L 262 262 L 181 262 Z M 181 180 " clip-rule="nonzero"/></clipPath><clipPath id="63596e488c"><path d="M 181.511719 214.492188 L 227.527344 180.265625 L 262.648438 227.472656 L 216.632812 261.703125 Z M 181.511719 214.492188 " clip-rule="nonzero"/></clipPath><clipPath id="7ed180cdb8"><path d="M 181.511719 214.492188 L 227.0625 180.609375 L 261.988281 227.5625 L 216.441406 261.445312 Z M 181.511719 214.492188 " clip-rule="nonzero"/></clipPath></defs><g fill="#ffb929" fill-opacity="1"><g transform="translate(135.501105, 304.864346)"><g><path d="M 6.3125 -8.203125 C 6.019531 -9.023438 5.734375 -9.796875 5.453125 -10.515625 C 5.179688 -11.234375 4.929688 -11.910156 4.703125 -12.546875 C 4.484375 -13.179688 4.269531 -13.765625 4.0625 -14.296875 C 3.863281 -14.828125 3.6875 -15.316406 3.53125 -15.765625 C 3.375 -16.222656 3.226562 -16.632812 3.09375 -17 C 2.75 -17.851562 2.429688 -18.441406 2.140625 -18.765625 C 2.066406 -18.828125 1.976562 -18.890625 1.875 -18.953125 C 1.78125 -19.023438 1.65625 -19.085938 1.5 -19.140625 C 1.351562 -19.203125 1.179688 -19.242188 0.984375 -19.265625 L 0.984375 -19.296875 L 0.953125 -19.296875 C 0.929688 -19.296875 0.898438 -19.300781 0.859375 -19.3125 C 0.828125 -19.320312 0.785156 -19.328125 0.734375 -19.328125 C 0.691406 -19.328125 0.640625 -19.34375 0.578125 -19.375 C 0.148438 -19.457031 -0.15625 -19.660156 -0.34375 -19.984375 C -0.425781 -20.140625 -0.476562 -20.285156 -0.5 -20.421875 C -0.53125 -20.554688 -0.546875 -20.710938 -0.546875 -20.890625 C -0.546875 -21.484375 -0.34375 -21.90625 0.0625 -22.15625 C 0.363281 -22.332031 0.75 -22.421875 1.21875 -22.421875 C 3.070312 -22.421875 4.507812 -22.128906 5.53125 -21.546875 C 6.570312 -20.910156 7.382812 -19.832031 7.96875 -18.3125 L 12.140625 -7.15625 L 13.609375 -11.46875 L 16.078125 -18.65625 L 16.25 -19.125 C 16.132812 -19.15625 16.007812 -19.175781 15.875 -19.1875 C 15.738281 -19.195312 15.582031 -19.203125 15.40625 -19.203125 L 15.203125 -19.203125 C 14.765625 -19.203125 14.421875 -19.3125 14.171875 -19.53125 C 14.035156 -19.644531 13.925781 -19.785156 13.84375 -19.953125 C 13.769531 -20.128906 13.734375 -20.242188 13.734375 -20.296875 C 13.734375 -20.359375 13.722656 -20.488281 13.703125 -20.6875 L 13.703125 -20.765625 C 13.703125 -20.828125 13.703125 -20.882812 13.703125 -20.9375 C 13.703125 -21 13.707031 -21.054688 13.71875 -21.109375 C 13.726562 -21.171875 13.742188 -21.226562 13.765625 -21.28125 C 13.796875 -21.34375 13.820312 -21.398438 13.84375 -21.453125 C 13.863281 -21.515625 13.882812 -21.570312 13.90625 -21.625 C 13.925781 -21.675781 13.960938 -21.726562 14.015625 -21.78125 C 14.078125 -21.863281 14.144531 -21.9375 14.21875 -22 C 14.300781 -22.070312 14.394531 -22.132812 14.5 -22.1875 C 14.601562 -22.25 14.703125 -22.289062 14.796875 -22.3125 C 14.898438 -22.34375 15.007812 -22.359375 15.125 -22.359375 L 15.15625 -22.359375 C 15.882812 -22.304688 16.550781 -22.273438 17.15625 -22.265625 C 17.769531 -22.253906 18.328125 -22.25 18.828125 -22.25 C 18.921875 -22.25 19.019531 -22.25 19.125 -22.25 C 19.238281 -22.25 19.367188 -22.25 19.515625 -22.25 C 19.671875 -22.25 19.835938 -22.253906 20.015625 -22.265625 C 20.191406 -22.273438 20.378906 -22.285156 20.578125 -22.296875 C 20.785156 -22.316406 21.015625 -22.328125 21.265625 -22.328125 L 21.984375 -22.359375 L 22.015625 -22.359375 C 22.515625 -22.359375 22.898438 -22.164062 23.171875 -21.78125 C 23.367188 -21.488281 23.46875 -21.148438 23.46875 -20.765625 L 23.46875 -20.6875 C 23.425781 -20.144531 23.269531 -19.757812 23 -19.53125 C 22.75 -19.3125 22.410156 -19.203125 21.984375 -19.203125 C 21.554688 -19.203125 21.191406 -19.164062 20.890625 -19.09375 C 20.597656 -19.03125 20.375 -18.953125 20.21875 -18.859375 C 20.0625 -18.765625 19.894531 -18.597656 19.71875 -18.359375 C 19.550781 -18.128906 19.390625 -17.820312 19.234375 -17.4375 C 18.984375 -16.757812 18.679688 -15.929688 18.328125 -14.953125 C 17.984375 -13.984375 17.582031 -12.863281 17.125 -11.59375 C 16.769531 -10.625 16.390625 -9.578125 15.984375 -8.453125 C 14.484375 -4.304688 13.394531 -1.285156 12.71875 0.609375 L 12.515625 1.1875 L 9.734375 1.1875 L 9.53125 0.640625 C 8.851562 -1.210938 7.78125 -4.160156 6.3125 -8.203125 Z M 6.3125 -8.203125 "/></g></g></g><g fill="#ffb929" fill-opacity="1"><g transform="translate(156.798909, 304.864346)"><g><path d="M 4.546875 0.03125 C 3.234375 -0.757812 2.238281 -1.851562 1.5625 -3.25 C 0.882812 -4.613281 0.546875 -6.117188 0.546875 -7.765625 C 0.546875 -9.234375 0.882812 -10.648438 1.5625 -12.015625 C 2.257812 -13.367188 3.242188 -14.472656 4.515625 -15.328125 C 5.796875 -16.191406 7.273438 -16.625 8.953125 -16.625 C 11.191406 -16.625 12.929688 -16.035156 14.171875 -14.859375 C 15.421875 -13.679688 16.132812 -12.109375 16.3125 -10.140625 L 16.3125 -10.078125 C 16.3125 -9.035156 15.984375 -8.289062 15.328125 -7.84375 C 14.785156 -7.476562 14.039062 -7.296875 13.09375 -7.296875 L 5.734375 -7.296875 C 5.828125 -5.753906 6.203125 -4.53125 6.859375 -3.625 C 7.554688 -2.632812 8.671875 -2.140625 10.203125 -2.140625 C 10.367188 -2.140625 10.53125 -2.144531 10.6875 -2.15625 C 10.84375 -2.164062 10.992188 -2.1875 11.140625 -2.21875 C 11.285156 -2.25 11.421875 -2.28125 11.546875 -2.3125 C 11.671875 -2.351562 11.789062 -2.398438 11.90625 -2.453125 C 12.019531 -2.515625 12.132812 -2.578125 12.25 -2.640625 C 12.8125 -2.984375 13.363281 -3.597656 13.90625 -4.484375 L 13.9375 -4.578125 L 14.015625 -4.640625 C 14.148438 -4.753906 14.296875 -4.847656 14.453125 -4.921875 C 14.609375 -5.003906 14.773438 -5.046875 14.953125 -5.046875 C 15.023438 -5.046875 15.101562 -5.035156 15.1875 -5.015625 C 15.28125 -4.992188 15.363281 -4.972656 15.4375 -4.953125 C 15.519531 -4.929688 15.597656 -4.898438 15.671875 -4.859375 C 15.742188 -4.828125 15.800781 -4.800781 15.84375 -4.78125 C 16.3125 -4.46875 16.546875 -4.023438 16.546875 -3.453125 C 16.546875 -3.316406 16.53125 -3.1875 16.5 -3.0625 C 16.46875 -2.945312 16.414062 -2.820312 16.34375 -2.6875 C 15.96875 -2.09375 15.53125 -1.546875 15.03125 -1.046875 C 14.53125 -0.554688 13.988281 -0.140625 13.40625 0.203125 C 12.195312 0.898438 10.835938 1.25 9.328125 1.25 C 7.472656 1.25 5.878906 0.84375 4.546875 0.03125 Z M 10.375 -10.28125 C 10.78125 -10.28125 11.039062 -10.320312 11.15625 -10.40625 C 11.269531 -10.5 11.335938 -10.660156 11.359375 -10.890625 C 11.359375 -11.023438 11.351562 -11.148438 11.34375 -11.265625 C 11.332031 -11.378906 11.316406 -11.488281 11.296875 -11.59375 C 11.273438 -11.707031 11.25 -11.816406 11.21875 -11.921875 C 11.195312 -12.023438 11.171875 -12.117188 11.140625 -12.203125 C 11.109375 -12.296875 11.066406 -12.390625 11.015625 -12.484375 C 10.972656 -12.578125 10.921875 -12.660156 10.859375 -12.734375 C 10.804688 -12.816406 10.75 -12.898438 10.6875 -12.984375 C 10.476562 -13.234375 10.238281 -13.421875 9.96875 -13.546875 C 9.695312 -13.671875 9.359375 -13.734375 8.953125 -13.734375 C 8.066406 -13.734375 7.332031 -13.382812 6.75 -12.6875 C 6.269531 -12.070312 5.953125 -11.269531 5.796875 -10.28125 Z M 10.375 -10.28125 "/></g></g></g><g fill="#ffb929" fill-opacity="1"><g transform="translate(173.145256, 304.864346)"><g><path d="M 4.546875 0.03125 C 3.234375 -0.757812 2.238281 -1.851562 1.5625 -3.25 C 0.882812 -4.613281 0.546875 -6.117188 0.546875 -7.765625 C 0.546875 -9.234375 0.882812 -10.648438 1.5625 -12.015625 C 2.257812 -13.367188 3.242188 -14.472656 4.515625 -15.328125 C 5.796875 -16.191406 7.273438 -16.625 8.953125 -16.625 C 11.191406 -16.625 12.929688 -16.035156 14.171875 -14.859375 C 15.421875 -13.679688 16.132812 -12.109375 16.3125 -10.140625 L 16.3125 -10.078125 C 16.3125 -9.035156 15.984375 -8.289062 15.328125 -7.84375 C 14.785156 -7.476562 14.039062 -7.296875 13.09375 -7.296875 L 5.734375 -7.296875 C 5.828125 -5.753906 6.203125 -4.53125 6.859375 -3.625 C 7.554688 -2.632812 8.671875 -2.140625 10.203125 -2.140625 C 10.367188 -2.140625 10.53125 -2.144531 10.6875 -2.15625 C 10.84375 -2.164062 10.992188 -2.1875 11.140625 -2.21875 C 11.285156 -2.25 11.421875 -2.28125 11.546875 -2.3125 C 11.671875 -2.351562 11.789062 -2.398438 11.90625 -2.453125 C 12.019531 -2.515625 12.132812 -2.578125 12.25 -2.640625 C 12.8125 -2.984375 13.363281 -3.597656 13.90625 -4.484375 L 13.9375 -4.578125 L 14.015625 -4.640625 C 14.148438 -4.753906 14.296875 -4.847656 14.453125 -4.921875 C 14.609375 -5.003906 14.773438 -5.046875 14.953125 -5.046875 C 15.023438 -5.046875 15.101562 -5.035156 15.1875 -5.015625 C 15.28125 -4.992188 15.363281 -4.972656 15.4375 -4.953125 C 15.519531 -4.929688 15.597656 -4.898438 15.671875 -4.859375 C 15.742188 -4.828125 15.800781 -4.800781 15.84375 -4.78125 C 16.3125 -4.46875 16.546875 -4.023438 16.546875 -3.453125 C 16.546875 -3.316406 16.53125 -3.1875 16.5 -3.0625 C 16.46875 -2.945312 16.414062 -2.820312 16.34375 -2.6875 C 15.96875 -2.09375 15.53125 -1.546875 15.03125 -1.046875 C 14.53125 -0.554688 13.988281 -0.140625 13.40625 0.203125 C 12.195312 0.898438 10.835938 1.25 9.328125 1.25 C 7.472656 1.25 5.878906 0.84375 4.546875 0.03125 Z M 10.375 -10.28125 C 10.78125 -10.28125 11.039062 -10.320312 11.15625 -10.40625 C 11.269531 -10.5 11.335938 -10.660156 11.359375 -10.890625 C 11.359375 -11.023438 11.351562 -11.148438 11.34375 -11.265625 C 11.332031 -11.378906 11.316406 -11.488281 11.296875 -11.59375 C 11.273438 -11.707031 11.25 -11.816406 11.21875 -11.921875 C 11.195312 -12.023438 11.171875 -12.117188 11.140625 -12.203125 C 11.109375 -12.296875 11.066406 -12.390625 11.015625 -12.484375 C 10.972656 -12.578125 10.921875 -12.660156 10.859375 -12.734375 C 10.804688 -12.816406 10.75 -12.898438 10.6875 -12.984375 C 10.476562 -13.234375 10.238281 -13.421875 9.96875 -13.546875 C 9.695312 -13.671875 9.359375 -13.734375 8.953125 -13.734375 C 8.066406 -13.734375 7.332031 -13.382812 6.75 -12.6875 C 6.269531 -12.070312 5.953125 -11.269531 5.796875 -10.28125 Z M 10.375 -10.28125 "/></g></g></g><g fill="#ffb929" fill-opacity="1"><g transform="translate(189.491604, 304.864346)"><g><path d="M 5.9375 0.8125 C 5.976562 0.882812 6.007812 0.941406 6.03125 0.984375 C 6.0625 1.023438 6.09375 1.097656 6.125 1.203125 C 6.15625 1.304688 6.171875 1.40625 6.171875 1.5 C 6.171875 1.695312 6.144531 1.859375 6.09375 1.984375 C 6.050781 2.109375 6.003906 2.1875 5.953125 2.21875 C 5.898438 2.25 5.835938 2.28125 5.765625 2.3125 C 5.703125 2.351562 5.65625 2.382812 5.625 2.40625 C 5.488281 2.539062 5.378906 2.710938 5.296875 2.921875 C 5.203125 3.078125 5.15625 3.28125 5.15625 3.53125 C 5.15625 4.707031 6.363281 5.296875 8.78125 5.296875 C 8.96875 5.296875 9.144531 5.289062 9.3125 5.28125 C 9.476562 5.269531 9.640625 5.265625 9.796875 5.265625 C 10.859375 5.171875 11.6875 4.929688 12.28125 4.546875 C 12.957031 4.085938 13.296875 3.429688 13.296875 2.578125 C 13.296875 2.484375 13.289062 2.394531 13.28125 2.3125 C 13.269531 2.238281 13.253906 2.164062 13.234375 2.09375 C 13.210938 2.03125 13.179688 1.96875 13.140625 1.90625 C 13.109375 1.851562 13.066406 1.8125 13.015625 1.78125 C 12.972656 1.75 12.921875 1.707031 12.859375 1.65625 C 12.648438 1.519531 12.40625 1.398438 12.125 1.296875 C 11.84375 1.203125 11.53125 1.128906 11.1875 1.078125 C 10.988281 1.054688 10.773438 1.039062 10.546875 1.03125 C 10.316406 1.019531 10.078125 1.003906 9.828125 0.984375 C 9.585938 0.960938 9.316406 0.945312 9.015625 0.9375 C 8.722656 0.925781 8.410156 0.921875 8.078125 0.921875 C 7.265625 0.890625 6.550781 0.851562 5.9375 0.8125 Z M 2.34375 -0.171875 C 2.25 -0.234375 2.15625 -0.300781 2.0625 -0.375 C 1.382812 -0.9375 1.046875 -1.78125 1.046875 -2.90625 C 1.046875 -4.039062 1.441406 -4.992188 2.234375 -5.765625 C 2.484375 -5.992188 2.769531 -6.195312 3.09375 -6.375 C 2.863281 -6.53125 2.65625 -6.703125 2.46875 -6.890625 C 2.289062 -7.085938 2.125 -7.289062 1.96875 -7.5 C 1.332031 -8.425781 1.015625 -9.460938 1.015625 -10.609375 C 1.015625 -11.765625 1.34375 -12.804688 2 -13.734375 C 2.3125 -14.210938 2.691406 -14.628906 3.140625 -14.984375 C 3.597656 -15.347656 4.113281 -15.65625 4.6875 -15.90625 C 5.789062 -16.40625 7.03125 -16.65625 8.40625 -16.65625 C 10.019531 -16.65625 11.3125 -16.441406 12.28125 -16.015625 L 13.640625 -16.28125 L 16.65625 -16.859375 L 16.890625 -16.859375 C 17.347656 -16.859375 17.695312 -16.679688 17.9375 -16.328125 C 18.1875 -15.984375 18.3125 -15.609375 18.3125 -15.203125 C 18.3125 -15.085938 18.304688 -14.984375 18.296875 -14.890625 C 18.285156 -14.796875 18.273438 -14.695312 18.265625 -14.59375 C 18.253906 -14.5 18.226562 -14.398438 18.1875 -14.296875 C 18.15625 -14.191406 18.128906 -14.097656 18.109375 -14.015625 C 18.046875 -13.847656 17.984375 -13.710938 17.921875 -13.609375 C 17.867188 -13.515625 17.75 -13.398438 17.5625 -13.265625 C 17.382812 -13.128906 17.171875 -13.0625 16.921875 -13.0625 L 15.203125 -13.125 C 15.265625 -13.007812 15.316406 -12.894531 15.359375 -12.78125 C 15.679688 -12.039062 15.84375 -11.332031 15.84375 -10.65625 C 15.84375 -9.425781 15.492188 -8.335938 14.796875 -7.390625 C 14.429688 -6.921875 14.019531 -6.507812 13.5625 -6.15625 C 13.113281 -5.800781 12.617188 -5.503906 12.078125 -5.265625 C 10.992188 -4.785156 9.863281 -4.546875 8.6875 -4.546875 L 7.1875 -4.546875 C 6.351562 -4.546875 5.710938 -4.488281 5.265625 -4.375 C 5.148438 -4.332031 5.046875 -4.300781 4.953125 -4.28125 C 4.773438 -4.1875 4.6875 -4.070312 4.6875 -3.9375 C 4.6875 -3.800781 4.707031 -3.722656 4.75 -3.703125 C 4.90625 -3.585938 5.265625 -3.503906 5.828125 -3.453125 L 10.484375 -3.296875 C 13.015625 -3.203125 14.867188 -2.78125 16.046875 -2.03125 C 17.359375 -1.195312 18.015625 0.0546875 18.015625 1.734375 C 18.015625 3.804688 17.050781 5.429688 15.125 6.609375 C 14.46875 6.992188 13.75 7.3125 12.96875 7.5625 C 12.195312 7.8125 11.34375 7.992188 10.40625 8.109375 C 10.050781 8.148438 9.675781 8.179688 9.28125 8.203125 C 8.882812 8.234375 8.484375 8.25 8.078125 8.25 C 5.566406 8.25 3.601562 7.84375 2.1875 7.03125 C 0.769531 6.226562 0.0625 4.992188 0.0625 3.328125 C 0.0625 2.347656 0.378906 1.5 1.015625 0.78125 C 1.191406 0.550781 1.394531 0.359375 1.625 0.203125 C 1.851562 0.046875 2.09375 -0.078125 2.34375 -0.171875 Z M 10.3125 -8.078125 C 10.488281 -8.253906 10.632812 -8.46875 10.75 -8.71875 C 10.863281 -8.96875 10.945312 -9.253906 11 -9.578125 C 11.0625 -9.910156 11.09375 -10.269531 11.09375 -10.65625 C 11.09375 -11.664062 10.832031 -12.46875 10.3125 -13.0625 C 9.8125 -13.625 9.164062 -13.90625 8.375 -13.90625 C 8.101562 -13.90625 7.851562 -13.875 7.625 -13.8125 C 7.40625 -13.757812 7.203125 -13.671875 7.015625 -13.546875 C 6.835938 -13.421875 6.660156 -13.269531 6.484375 -13.09375 C 6.316406 -12.914062 6.175781 -12.710938 6.0625 -12.484375 C 5.957031 -12.253906 5.875 -11.992188 5.8125 -11.703125 C 5.757812 -11.410156 5.734375 -11.082031 5.734375 -10.71875 C 5.734375 -9.5625 5.992188 -8.679688 6.515625 -8.078125 C 7.015625 -7.503906 7.644531 -7.21875 8.40625 -7.21875 C 9.195312 -7.21875 9.832031 -7.503906 10.3125 -8.078125 Z M 10.3125 -8.078125 "/></g></g></g><g fill="#ffb929" fill-opacity="1"><g transform="translate(206.550148, 304.864346)"><g><path d="M 4.75 0.03125 C 4.40625 -0.164062 4.085938 -0.382812 3.796875 -0.625 C 3.503906 -0.863281 3.226562 -1.117188 2.96875 -1.390625 C 2.707031 -1.660156 2.46875 -1.945312 2.25 -2.25 C 2.039062 -2.5625 1.84375 -2.875 1.65625 -3.1875 C 0.914062 -4.539062 0.546875 -5.96875 0.546875 -7.46875 C 0.546875 -9.320312 0.984375 -10.945312 1.859375 -12.34375 C 2.722656 -13.726562 3.832031 -14.785156 5.1875 -15.515625 C 6.539062 -16.253906 7.910156 -16.625 9.296875 -16.625 C 10.128906 -16.625 10.929688 -16.519531 11.703125 -16.3125 C 12.472656 -16.113281 13.1875 -15.8125 13.84375 -15.40625 C 15.175781 -14.582031 16.207031 -13.5 16.9375 -12.15625 C 17.675781 -10.8125 18.046875 -9.394531 18.046875 -7.90625 C 18.046875 -6.050781 17.601562 -4.421875 16.71875 -3.015625 C 15.84375 -1.640625 14.722656 -0.585938 13.359375 0.140625 C 12.003906 0.878906 10.648438 1.25 9.296875 1.25 C 7.597656 1.25 6.082031 0.84375 4.75 0.03125 Z M 11.9375 -3.21875 C 12.050781 -3.445312 12.160156 -3.691406 12.265625 -3.953125 C 12.367188 -4.210938 12.457031 -4.488281 12.53125 -4.78125 C 12.613281 -5.070312 12.679688 -5.378906 12.734375 -5.703125 C 12.796875 -6.035156 12.835938 -6.390625 12.859375 -6.765625 C 12.878906 -7.140625 12.890625 -7.519531 12.890625 -7.90625 C 12.890625 -9.6875 12.5625 -11.132812 11.90625 -12.25 C 11.34375 -13.195312 10.472656 -13.671875 9.296875 -13.671875 C 8.640625 -13.671875 8.101562 -13.550781 7.6875 -13.3125 C 7.269531 -13.070312 6.925781 -12.691406 6.65625 -12.171875 C 6.445312 -11.785156 6.273438 -11.359375 6.140625 -10.890625 C 6.003906 -10.429688 5.894531 -9.921875 5.8125 -9.359375 C 5.738281 -8.796875 5.703125 -8.1875 5.703125 -7.53125 C 5.703125 -5.738281 6.03125 -4.28125 6.6875 -3.15625 C 6.976562 -2.65625 7.328125 -2.285156 7.734375 -2.046875 C 8.140625 -1.816406 8.660156 -1.703125 9.296875 -1.703125 C 9.722656 -1.703125 10.09375 -1.753906 10.40625 -1.859375 C 10.726562 -1.972656 11.015625 -2.140625 11.265625 -2.359375 C 11.515625 -2.578125 11.738281 -2.863281 11.9375 -3.21875 Z M 11.9375 -3.21875 "/></g></g></g><g fill="#ffb929" fill-opacity="1"><g transform="translate(224.456541, 304.864346)"><g><path d="M 2.578125 0.203125 C 1.148438 -0.585938 0.4375 -1.726562 0.4375 -3.21875 C 0.4375 -4.101562 0.71875 -4.828125 1.28125 -5.390625 C 1.5625 -5.679688 1.882812 -5.898438 2.25 -6.046875 C 2.625 -6.203125 3.015625 -6.28125 3.421875 -6.28125 C 3.554688 -6.28125 3.6875 -6.265625 3.8125 -6.234375 C 3.9375 -6.210938 4.0625 -6.1875 4.1875 -6.15625 C 4.3125 -6.125 4.429688 -6.078125 4.546875 -6.015625 C 4.660156 -5.960938 4.773438 -5.890625 4.890625 -5.796875 C 4.910156 -5.796875 4.957031 -5.765625 5.03125 -5.703125 C 5.113281 -5.648438 5.171875 -5.609375 5.203125 -5.578125 C 5.242188 -5.546875 5.296875 -5.492188 5.359375 -5.421875 C 5.429688 -5.359375 5.484375 -5.289062 5.515625 -5.21875 C 5.546875 -5.15625 5.578125 -5.070312 5.609375 -4.96875 C 5.648438 -4.863281 5.671875 -4.753906 5.671875 -4.640625 C 5.671875 -4.441406 5.644531 -4.273438 5.59375 -4.140625 C 5.550781 -4.003906 5.5 -3.914062 5.4375 -3.875 C 5.382812 -3.84375 5.3125 -3.796875 5.21875 -3.734375 C 5.132812 -3.679688 5.078125 -3.644531 5.046875 -3.625 C 4.941406 -3.507812 4.890625 -3.316406 4.890625 -3.046875 C 4.890625 -2.691406 5.066406 -2.398438 5.421875 -2.171875 C 5.898438 -1.859375 6.648438 -1.703125 7.671875 -1.703125 C 8.523438 -1.703125 9.179688 -1.867188 9.640625 -2.203125 C 10.015625 -2.492188 10.203125 -2.925781 10.203125 -3.5 C 10.203125 -3.675781 10.179688 -3.828125 10.140625 -3.953125 C 10.097656 -4.078125 10.03125 -4.195312 9.9375 -4.3125 C 9.800781 -4.445312 9.65625 -4.5625 9.5 -4.65625 C 9.34375 -4.757812 9.160156 -4.859375 8.953125 -4.953125 C 8.722656 -5.046875 8.429688 -5.144531 8.078125 -5.25 C 7.734375 -5.363281 7.347656 -5.488281 6.921875 -5.625 C 6.359375 -5.789062 5.835938 -5.957031 5.359375 -6.125 C 4.878906 -6.289062 4.460938 -6.453125 4.109375 -6.609375 C 3.671875 -6.796875 3.273438 -7.03125 2.921875 -7.3125 C 2.578125 -7.59375 2.257812 -7.925781 1.96875 -8.3125 C 1.351562 -9.082031 1.046875 -10.078125 1.046875 -11.296875 C 1.046875 -12.453125 1.410156 -13.445312 2.140625 -14.28125 C 2.472656 -14.6875 2.859375 -15.035156 3.296875 -15.328125 C 3.742188 -15.628906 4.238281 -15.878906 4.78125 -16.078125 C 5.125 -16.191406 5.46875 -16.285156 5.8125 -16.359375 C 6.164062 -16.441406 6.523438 -16.503906 6.890625 -16.546875 C 7.273438 -16.597656 7.660156 -16.625 8.046875 -16.625 C 9.535156 -16.625 10.832031 -16.304688 11.9375 -15.671875 C 13.207031 -14.921875 13.84375 -13.878906 13.84375 -12.546875 C 13.84375 -11.734375 13.582031 -11.035156 13.0625 -10.453125 C 12.519531 -9.816406 11.816406 -9.5 10.953125 -9.5 C 10.410156 -9.5 9.925781 -9.65625 9.5 -9.96875 C 9.476562 -9.96875 9.425781 -9.992188 9.34375 -10.046875 C 9.269531 -10.109375 9.210938 -10.15625 9.171875 -10.1875 C 9.140625 -10.226562 9.085938 -10.28125 9.015625 -10.34375 C 8.953125 -10.414062 8.898438 -10.484375 8.859375 -10.546875 C 8.828125 -10.617188 8.796875 -10.703125 8.765625 -10.796875 C 8.734375 -10.898438 8.71875 -11.007812 8.71875 -11.125 C 8.71875 -11.332031 8.742188 -11.503906 8.796875 -11.640625 C 8.859375 -11.773438 8.914062 -11.859375 8.96875 -11.890625 C 9.03125 -11.921875 9.09375 -11.945312 9.15625 -11.96875 C 9.226562 -12 9.273438 -12.023438 9.296875 -12.046875 C 9.410156 -12.160156 9.523438 -12.296875 9.640625 -12.453125 C 9.679688 -12.492188 9.703125 -12.570312 9.703125 -12.6875 C 9.679688 -13 9.507812 -13.25 9.1875 -13.4375 C 8.757812 -13.6875 8.238281 -13.8125 7.625 -13.8125 L 7.21875 -13.765625 C 6.945312 -13.742188 6.695312 -13.695312 6.46875 -13.625 C 6.25 -13.5625 6.035156 -13.460938 5.828125 -13.328125 C 5.453125 -13.097656 5.265625 -12.796875 5.265625 -12.421875 C 5.265625 -12.171875 5.285156 -11.960938 5.328125 -11.796875 C 5.367188 -11.640625 5.425781 -11.503906 5.5 -11.390625 C 5.5625 -11.328125 5.625 -11.257812 5.6875 -11.1875 C 5.757812 -11.125 5.851562 -11.054688 5.96875 -10.984375 C 6.082031 -10.921875 6.21875 -10.851562 6.375 -10.78125 C 6.625 -10.675781 6.957031 -10.546875 7.375 -10.390625 C 7.789062 -10.242188 8.296875 -10.082031 8.890625 -9.90625 C 9.179688 -9.789062 9.460938 -9.6875 9.734375 -9.59375 C 10.003906 -9.507812 10.265625 -9.421875 10.515625 -9.328125 C 10.765625 -9.234375 10.992188 -9.140625 11.203125 -9.046875 C 11.421875 -8.960938 11.625 -8.875 11.8125 -8.78125 C 12.625 -8.394531 13.265625 -7.863281 13.734375 -7.1875 C 14.234375 -6.488281 14.484375 -5.597656 14.484375 -4.515625 C 14.484375 -3.972656 14.394531 -3.445312 14.21875 -2.9375 C 14.050781 -2.425781 13.8125 -1.945312 13.5 -1.5 C 13.1875 -1.039062 12.8125 -0.640625 12.375 -0.296875 C 11.945312 0.0351562 11.460938 0.316406 10.921875 0.546875 C 10.128906 0.898438 9.257812 1.125 8.3125 1.21875 C 8.019531 1.238281 7.710938 1.25 7.390625 1.25 C 5.421875 1.25 3.816406 0.898438 2.578125 0.203125 Z M 2.578125 0.203125 "/></g></g></g><g clip-path="url(#05691ae74d)"><g clip-path="url(#d06aa40e95)"><g clip-path="url(#4972dfa49e)"><g clip-path="url(#85b33da2cf)"><path fill="#ffb929" d="M 192.371094 160.273438 C 190.171875 161.90625 187.074219 161.480469 185.441406 159.285156 L 177.929688 149.1875 L 152.828125 167.859375 L 141.03125 152 C 135.09375 144.019531 136.777344 132.671875 144.804688 126.699219 C 152.828125 120.730469 164.183594 122.382812 170.121094 130.363281 C 180.535156 144.359375 185.921875 151.601562 192.371094 160.273438 Z M 272.800781 199.378906 L 215.050781 136.425781 C 210.449219 131.414062 202.800781 130.6875 197.332031 134.757812 L 188.308594 141.46875 L 177.078125 126.375 C 168.828125 115.28125 153.242188 111.785156 141.582031 119.273438 C 128.761719 127.5 125.726562 144.769531 134.640625 156.753906 L 146.441406 172.613281 L 137.417969 179.328125 C 131.945312 183.394531 130.445312 190.929688 133.921875 196.777344 L 177.609375 270.1875 C 182.125 277.804688 192.265625 279.804688 199.371094 274.515625 L 212.332031 264.875 C 212.332031 264.875 212.484375 264.761719 212.765625 264.554688 C 217.0625 261.359375 251.378906 234.046875 225.117188 194.527344 C 224.246094 193.195312 225.730469 191.617188 227.0625 192.449219 C 235.886719 197.847656 252.117188 210.167969 255.09375 229.382812 C 255.324219 230.917969 257.109375 231.609375 258.335938 230.695312 L 270.679688 221.511719 C 277.792969 216.179688 278.8125 205.917969 272.800781 199.378906 Z M 272.800781 199.378906 " fill-opacity="1" fill-rule="nonzero"/></g></g></g></g><g clip-path="url(#d5600f0406)"><g clip-path="url(#63596e488c)"><g clip-path="url(#7ed180cdb8)"><path fill="#ffb929" d="M 181.511719 214.492188 L 226.929688 180.707031 L 262.050781 227.917969 L 216.632812 261.703125 Z M 181.511719 214.492188 " fill-opacity="1" fill-rule="nonzero"/></g></g></g><g fill="#ffffff" fill-opacity="1"><g transform="translate(165.65082, 258.411271)"><g><path d="M 17 -33.96875 C 12.945312 -48.632812 9.96875 -59.195312 8.0625 -65.65625 C 7.125 -68.664062 6.242188 -70.664062 5.421875 -71.65625 C 4.742188 -72.332031 3.546875 -72.722656 1.828125 -72.828125 C 1.742188 -72.816406 1.632812 -72.820312 1.5 -72.84375 C 1.375 -72.863281 1.226562 -72.863281 1.0625 -72.84375 C 0.894531 -72.820312 0.722656 -72.84375 0.546875 -72.90625 C -0.234375 -72.96875 -0.984375 -73.160156 -1.703125 -73.484375 C -2.421875 -73.804688 -2.96875 -74.410156 -3.34375 -75.296875 C -3.800781 -76.078125 -4 -77.195312 -3.9375 -78.65625 L -3.8125 -78.671875 L -3.828125 -78.796875 C -3.773438 -79.648438 -3.566406 -80.460938 -3.203125 -81.234375 C -2.847656 -82.015625 -2.285156 -82.664062 -1.515625 -83.1875 C -0.503906 -83.925781 0.835938 -84.414062 2.515625 -84.65625 C 9.429688 -85.601562 14.707031 -85.179688 18.34375 -83.390625 C 22.207031 -81.367188 24.992188 -77.539062 26.703125 -71.90625 L 37.90625 -32.25 L 45.640625 -51.171875 L 56.640625 -78.59375 C 56.910156 -79.132812 57.101562 -79.582031 57.21875 -79.9375 C 56.613281 -79.945312 55.898438 -79.894531 55.078125 -79.78125 L 54.3125 -79.671875 C 52.5625 -79.429688 51.160156 -79.75 50.109375 -80.625 C 49.816406 -80.914062 49.566406 -81.195312 49.359375 -81.46875 C 49.148438 -81.738281 48.984375 -81.992188 48.859375 -82.234375 C 48.742188 -82.472656 48.664062 -82.757812 48.625 -83.09375 C 48.582031 -83.425781 48.566406 -83.675781 48.578125 -83.84375 C 48.597656 -84.019531 48.601562 -84.273438 48.59375 -84.609375 C 48.59375 -84.953125 48.585938 -85.164062 48.578125 -85.25 L 48.6875 -85.390625 C 48.757812 -86.753906 49.1875 -87.957031 49.96875 -89 C 50.882812 -90.414062 52.140625 -91.234375 53.734375 -91.453125 L 53.859375 -91.46875 C 59.222656 -91.9375 63.695312 -92.421875 67.28125 -92.921875 C 68.875 -93.140625 71.910156 -93.644531 76.390625 -94.4375 L 79 -94.9375 L 79.125 -94.953125 C 81.207031 -95.234375 82.789062 -94.554688 83.875 -92.921875 C 84.195312 -92.367188 84.429688 -91.722656 84.578125 -90.984375 C 84.734375 -90.242188 84.753906 -89.609375 84.640625 -89.078125 L 84.671875 -88.828125 C 84.648438 -88.472656 84.625 -88.226562 84.59375 -88.09375 C 84.570312 -87.96875 84.519531 -87.75 84.4375 -87.4375 C 84.351562 -87.132812 84.28125 -86.894531 84.21875 -86.71875 C 84.15625 -86.539062 84.054688 -86.3125 83.921875 -86.03125 C 83.785156 -85.757812 83.628906 -85.503906 83.453125 -85.265625 C 83.273438 -85.035156 83.078125 -84.820312 82.859375 -84.625 C 82.398438 -84.132812 81.863281 -83.78125 81.25 -83.5625 C 80.644531 -83.351562 80.007812 -83.207031 79.34375 -83.125 C 76.257812 -82.695312 73.96875 -81.910156 72.46875 -80.765625 C 70.976562 -79.628906 69.46875 -77.503906 67.9375 -74.390625 C 65.832031 -69.265625 62.765625 -61.875 58.734375 -52.21875 C 56.929688 -48.0625 54.96875 -43.492188 52.84375 -38.515625 C 45.875 -21.910156 40.78125 -9.820312 37.5625 -2.25 L 36.90625 -0.625 L 35.15625 -0.390625 L 29.28125 0.421875 L 26.515625 0.8125 L 25.765625 -1.890625 C 23.898438 -8.609375 20.976562 -19.300781 17 -33.96875 Z M 17 -33.96875 "/></g></g></g></svg>