<svg xmlns="http://www.w3.org/2000/svg" xmlns:xlink="http://www.w3.org/1999/xlink" width="500" zoomAndPan="magnify" viewBox="0 0 375 374.999991" height="500" preserveAspectRatio="xMidYMid meet" version="1.0"><defs><g/></defs><g fill="white" fill-opacity="1"><g transform="translate(178.701996, 207.576478)"><g><path d="M 6.546875 0.046875 C 4.660156 -1.085938 3.226562 -2.664062 2.25 -4.6875 C 1.269531 -6.644531 0.78125 -8.816406 0.78125 -11.203125 C 0.78125 -13.316406 1.269531 -15.351562 2.25 -17.3125 C 3.257812 -19.257812 4.675781 -20.851562 6.5 -22.09375 C 8.363281 -23.332031 10.5 -23.953125 12.90625 -23.953125 C 16.132812 -23.953125 18.644531 -23.109375 20.4375 -21.421875 C 22.226562 -19.722656 23.253906 -17.457031 23.515625 -14.625 L 23.515625 -14.515625 C 23.515625 -13.015625 23.039062 -11.941406 22.09375 -11.296875 C 21.3125 -10.773438 20.238281 -10.515625 18.875 -10.515625 L 8.265625 -10.515625 C 8.390625 -8.296875 8.925781 -6.535156 9.875 -5.234375 C 10.882812 -3.796875 12.5 -3.078125 14.71875 -3.078125 C 14.945312 -3.078125 15.175781 -3.082031 15.40625 -3.09375 C 15.632812 -3.113281 15.851562 -3.148438 16.0625 -3.203125 C 16.269531 -3.253906 16.460938 -3.300781 16.640625 -3.34375 C 16.828125 -3.394531 17 -3.460938 17.15625 -3.546875 C 17.320312 -3.628906 17.488281 -3.71875 17.65625 -3.8125 C 18.46875 -4.300781 19.265625 -5.179688 20.046875 -6.453125 L 20.09375 -6.59375 L 20.1875 -6.703125 C 20.382812 -6.859375 20.597656 -6.992188 20.828125 -7.109375 C 21.054688 -7.222656 21.300781 -7.28125 21.5625 -7.28125 C 21.65625 -7.28125 21.765625 -7.265625 21.890625 -7.234375 C 22.023438 -7.203125 22.148438 -7.171875 22.265625 -7.140625 C 22.378906 -7.109375 22.484375 -7.066406 22.578125 -7.015625 C 22.679688 -6.960938 22.765625 -6.921875 22.828125 -6.890625 C 23.515625 -6.429688 23.859375 -5.796875 23.859375 -4.984375 C 23.859375 -4.785156 23.832031 -4.597656 23.78125 -4.421875 C 23.738281 -4.242188 23.664062 -4.054688 23.5625 -3.859375 C 23.007812 -3.015625 22.375 -2.234375 21.65625 -1.515625 C 20.9375 -0.796875 20.15625 -0.191406 19.3125 0.296875 C 17.582031 1.304688 15.625 1.8125 13.4375 1.8125 C 10.769531 1.8125 8.472656 1.222656 6.546875 0.046875 Z M 14.953125 -14.8125 C 15.546875 -14.8125 15.921875 -14.875 16.078125 -15 C 16.242188 -15.132812 16.34375 -15.363281 16.375 -15.6875 C 16.375 -15.882812 16.363281 -16.0625 16.34375 -16.21875 C 16.332031 -16.382812 16.3125 -16.550781 16.28125 -16.71875 C 16.25 -16.882812 16.21875 -17.039062 16.1875 -17.1875 C 16.15625 -17.332031 16.113281 -17.46875 16.0625 -17.59375 C 16.007812 -17.726562 15.953125 -17.859375 15.890625 -17.984375 C 15.828125 -18.117188 15.753906 -18.242188 15.671875 -18.359375 C 15.585938 -18.472656 15.5 -18.59375 15.40625 -18.71875 C 15.101562 -19.082031 14.753906 -19.351562 14.359375 -19.53125 C 13.972656 -19.707031 13.488281 -19.796875 12.90625 -19.796875 C 11.632812 -19.796875 10.578125 -19.289062 9.734375 -18.28125 C 9.046875 -17.40625 8.585938 -16.25 8.359375 -14.8125 Z M 14.953125 -14.8125 "/></g></g></g><g fill="white" fill-opacity="1"><g transform="translate(202.26425, 207.576478)"><g><path d="M 6.546875 0.046875 C 4.660156 -1.085938 3.226562 -2.664062 2.25 -4.6875 C 1.269531 -6.644531 0.78125 -8.816406 0.78125 -11.203125 C 0.78125 -13.316406 1.269531 -15.351562 2.25 -17.3125 C 3.257812 -19.257812 4.675781 -20.851562 6.5 -22.09375 C 8.363281 -23.332031 10.5 -23.953125 12.90625 -23.953125 C 16.132812 -23.953125 18.644531 -23.109375 20.4375 -21.421875 C 22.226562 -19.722656 23.253906 -17.457031 23.515625 -14.625 L 23.515625 -14.515625 C 23.515625 -13.015625 23.039062 -11.941406 22.09375 -11.296875 C 21.3125 -10.773438 20.238281 -10.515625 18.875 -10.515625 L 8.265625 -10.515625 C 8.390625 -8.296875 8.925781 -6.535156 9.875 -5.234375 C 10.882812 -3.796875 12.5 -3.078125 14.71875 -3.078125 C 14.945312 -3.078125 15.175781 -3.082031 15.40625 -3.09375 C 15.632812 -3.113281 15.851562 -3.148438 16.0625 -3.203125 C 16.269531 -3.253906 16.460938 -3.300781 16.640625 -3.34375 C 16.828125 -3.394531 17 -3.460938 17.15625 -3.546875 C 17.320312 -3.628906 17.488281 -3.71875 17.65625 -3.8125 C 18.46875 -4.300781 19.265625 -5.179688 20.046875 -6.453125 L 20.09375 -6.59375 L 20.1875 -6.703125 C 20.382812 -6.859375 20.597656 -6.992188 20.828125 -7.109375 C 21.054688 -7.222656 21.300781 -7.28125 21.5625 -7.28125 C 21.65625 -7.28125 21.765625 -7.265625 21.890625 -7.234375 C 22.023438 -7.203125 22.148438 -7.171875 22.265625 -7.140625 C 22.378906 -7.109375 22.484375 -7.066406 22.578125 -7.015625 C 22.679688 -6.960938 22.765625 -6.921875 22.828125 -6.890625 C 23.515625 -6.429688 23.859375 -5.796875 23.859375 -4.984375 C 23.859375 -4.785156 23.832031 -4.597656 23.78125 -4.421875 C 23.738281 -4.242188 23.664062 -4.054688 23.5625 -3.859375 C 23.007812 -3.015625 22.375 -2.234375 21.65625 -1.515625 C 20.9375 -0.796875 20.15625 -0.191406 19.3125 0.296875 C 17.582031 1.304688 15.625 1.8125 13.4375 1.8125 C 10.769531 1.8125 8.472656 1.222656 6.546875 0.046875 Z M 14.953125 -14.8125 C 15.546875 -14.8125 15.921875 -14.875 16.078125 -15 C 16.242188 -15.132812 16.34375 -15.363281 16.375 -15.6875 C 16.375 -15.882812 16.363281 -16.0625 16.34375 -16.21875 C 16.332031 -16.382812 16.3125 -16.550781 16.28125 -16.71875 C 16.25 -16.882812 16.21875 -17.039062 16.1875 -17.1875 C 16.15625 -17.332031 16.113281 -17.46875 16.0625 -17.59375 C 16.007812 -17.726562 15.953125 -17.859375 15.890625 -17.984375 C 15.828125 -18.117188 15.753906 -18.242188 15.671875 -18.359375 C 15.585938 -18.472656 15.5 -18.59375 15.40625 -18.71875 C 15.101562 -19.082031 14.753906 -19.351562 14.359375 -19.53125 C 13.972656 -19.707031 13.488281 -19.796875 12.90625 -19.796875 C 11.632812 -19.796875 10.578125 -19.289062 9.734375 -18.28125 C 9.046875 -17.40625 8.585938 -16.25 8.359375 -14.8125 Z M 14.953125 -14.8125 "/></g></g></g><g fill="white" fill-opacity="1"><g transform="translate(225.826505, 207.576478)"><g><path d="M 8.5625 1.171875 C 8.625 1.265625 8.671875 1.34375 8.703125 1.40625 C 8.734375 1.476562 8.769531 1.585938 8.8125 1.734375 C 8.863281 1.878906 8.890625 2.019531 8.890625 2.15625 C 8.890625 2.445312 8.859375 2.679688 8.796875 2.859375 C 8.734375 3.035156 8.660156 3.148438 8.578125 3.203125 C 8.492188 3.253906 8.40625 3.300781 8.3125 3.34375 C 8.21875 3.394531 8.148438 3.4375 8.109375 3.46875 C 7.921875 3.664062 7.757812 3.910156 7.625 4.203125 C 7.5 4.429688 7.4375 4.722656 7.4375 5.078125 C 7.4375 6.773438 9.175781 7.625 12.65625 7.625 C 12.914062 7.625 13.164062 7.613281 13.40625 7.59375 C 13.65625 7.582031 13.894531 7.578125 14.125 7.578125 C 15.65625 7.441406 16.847656 7.097656 17.703125 6.546875 C 18.679688 5.898438 19.171875 4.957031 19.171875 3.71875 C 19.171875 3.582031 19.160156 3.457031 19.140625 3.34375 C 19.117188 3.226562 19.09375 3.125 19.0625 3.03125 C 19.03125 2.9375 18.988281 2.847656 18.9375 2.765625 C 18.894531 2.679688 18.835938 2.613281 18.765625 2.5625 C 18.703125 2.519531 18.625 2.460938 18.53125 2.390625 C 18.238281 2.203125 17.890625 2.03125 17.484375 1.875 C 17.078125 1.726562 16.628906 1.625 16.140625 1.5625 C 15.835938 1.53125 15.523438 1.503906 15.203125 1.484375 C 14.878906 1.472656 14.535156 1.453125 14.171875 1.421875 C 13.816406 1.390625 13.425781 1.363281 13 1.34375 C 12.582031 1.320312 12.128906 1.3125 11.640625 1.3125 C 10.460938 1.28125 9.4375 1.234375 8.5625 1.171875 Z M 3.375 -0.25 C 3.238281 -0.34375 3.109375 -0.4375 2.984375 -0.53125 C 2.003906 -1.351562 1.515625 -2.578125 1.515625 -4.203125 C 1.515625 -5.835938 2.085938 -7.207031 3.234375 -8.3125 C 3.585938 -8.632812 3.992188 -8.925781 4.453125 -9.1875 C 4.117188 -9.414062 3.820312 -9.664062 3.5625 -9.9375 C 3.300781 -10.21875 3.054688 -10.507812 2.828125 -10.8125 C 1.921875 -12.144531 1.46875 -13.640625 1.46875 -15.296875 C 1.46875 -16.960938 1.941406 -18.460938 2.890625 -19.796875 C 3.335938 -20.484375 3.890625 -21.085938 4.546875 -21.609375 C 5.203125 -22.128906 5.9375 -22.566406 6.75 -22.921875 C 8.34375 -23.640625 10.132812 -24 12.125 -24 C 14.4375 -24 16.296875 -23.691406 17.703125 -23.078125 L 19.65625 -23.46875 L 24 -24.296875 L 24.34375 -24.296875 C 25 -24.296875 25.503906 -24.039062 25.859375 -23.53125 C 26.222656 -23.03125 26.40625 -22.488281 26.40625 -21.90625 C 26.40625 -21.738281 26.394531 -21.585938 26.375 -21.453125 C 26.363281 -21.328125 26.347656 -21.191406 26.328125 -21.046875 C 26.304688 -20.898438 26.269531 -20.753906 26.21875 -20.609375 C 26.175781 -20.460938 26.140625 -20.320312 26.109375 -20.1875 C 26.003906 -19.957031 25.910156 -19.769531 25.828125 -19.625 C 25.753906 -19.476562 25.585938 -19.304688 25.328125 -19.109375 C 25.066406 -18.921875 24.753906 -18.828125 24.390625 -18.828125 L 21.90625 -18.921875 C 22 -18.753906 22.078125 -18.59375 22.140625 -18.4375 C 22.597656 -17.351562 22.828125 -16.328125 22.828125 -15.359375 C 22.828125 -13.597656 22.320312 -12.03125 21.3125 -10.65625 C 20.789062 -9.96875 20.203125 -9.367188 19.546875 -8.859375 C 18.898438 -8.359375 18.1875 -7.929688 17.40625 -7.578125 C 15.84375 -6.890625 14.210938 -6.546875 12.515625 -6.546875 L 10.359375 -6.546875 C 9.160156 -6.546875 8.234375 -6.46875 7.578125 -6.3125 C 7.410156 -6.238281 7.265625 -6.1875 7.140625 -6.15625 C 6.878906 -6.03125 6.75 -5.867188 6.75 -5.671875 C 6.75 -5.472656 6.78125 -5.359375 6.84375 -5.328125 C 7.070312 -5.160156 7.59375 -5.046875 8.40625 -4.984375 L 15.109375 -4.75 C 18.753906 -4.613281 21.425781 -4.007812 23.125 -2.9375 C 25.007812 -1.726562 25.953125 0.0820312 25.953125 2.5 C 25.953125 5.488281 24.570312 7.832031 21.8125 9.53125 C 20.863281 10.082031 19.828125 10.535156 18.703125 10.890625 C 17.578125 11.253906 16.347656 11.519531 15.015625 11.6875 C 14.492188 11.75 13.945312 11.796875 13.375 11.828125 C 12.800781 11.859375 12.222656 11.875 11.640625 11.875 C 8.015625 11.875 5.179688 11.296875 3.140625 10.140625 C 1.109375 8.984375 0.09375 7.203125 0.09375 4.796875 C 0.09375 3.390625 0.550781 2.164062 1.46875 1.125 C 1.726562 0.800781 2.019531 0.523438 2.34375 0.296875 C 2.664062 0.0664062 3.007812 -0.113281 3.375 -0.25 Z M 14.859375 -11.640625 C 15.117188 -11.898438 15.332031 -12.207031 15.5 -12.5625 C 15.664062 -12.925781 15.785156 -13.34375 15.859375 -13.8125 C 15.941406 -14.28125 15.984375 -14.796875 15.984375 -15.359375 C 15.984375 -16.816406 15.609375 -17.972656 14.859375 -18.828125 C 14.140625 -19.640625 13.210938 -20.046875 12.078125 -20.046875 C 11.679688 -20.046875 11.320312 -20.003906 11 -19.921875 C 10.675781 -19.835938 10.382812 -19.707031 10.125 -19.53125 C 9.863281 -19.351562 9.609375 -19.132812 9.359375 -18.875 C 9.117188 -18.613281 8.914062 -18.316406 8.75 -17.984375 C 8.582031 -17.660156 8.457031 -17.285156 8.375 -16.859375 C 8.300781 -16.441406 8.265625 -15.972656 8.265625 -15.453125 C 8.265625 -13.785156 8.640625 -12.515625 9.390625 -11.640625 C 10.109375 -10.816406 11.019531 -10.40625 12.125 -10.40625 C 13.269531 -10.40625 14.179688 -10.816406 14.859375 -11.640625 Z M 14.859375 -11.640625 "/></g></g></g><g fill="white" fill-opacity="1"><g transform="translate(250.415354, 207.576478)"><g><path d="M 6.84375 0.046875 C 6.351562 -0.242188 5.894531 -0.5625 5.46875 -0.90625 C 5.050781 -1.25 4.65625 -1.613281 4.28125 -2 C 3.90625 -2.394531 3.5625 -2.8125 3.25 -3.25 C 2.9375 -3.6875 2.648438 -4.132812 2.390625 -4.59375 C 1.316406 -6.550781 0.78125 -8.601562 0.78125 -10.75 C 0.78125 -13.425781 1.414062 -15.773438 2.6875 -17.796875 C 3.925781 -19.785156 5.519531 -21.304688 7.46875 -22.359375 C 9.425781 -23.421875 11.398438 -23.953125 13.390625 -23.953125 C 14.597656 -23.953125 15.753906 -23.804688 16.859375 -23.515625 C 17.972656 -23.222656 19.003906 -22.785156 19.953125 -22.203125 C 21.867188 -21.023438 23.359375 -19.46875 24.421875 -17.53125 C 25.484375 -15.59375 26.015625 -13.546875 26.015625 -11.390625 C 26.015625 -8.710938 25.378906 -6.363281 24.109375 -4.34375 C 22.835938 -2.363281 21.222656 -0.84375 19.265625 0.21875 C 17.304688 1.28125 15.347656 1.8125 13.390625 1.8125 C 10.953125 1.8125 8.769531 1.222656 6.84375 0.046875 Z M 17.203125 -4.640625 C 17.367188 -4.972656 17.523438 -5.328125 17.671875 -5.703125 C 17.816406 -6.078125 17.945312 -6.472656 18.0625 -6.890625 C 18.175781 -7.316406 18.273438 -7.765625 18.359375 -8.234375 C 18.441406 -8.710938 18.5 -9.21875 18.53125 -9.75 C 18.5625 -10.289062 18.578125 -10.835938 18.578125 -11.390625 C 18.578125 -13.960938 18.101562 -16.050781 17.15625 -17.65625 C 16.34375 -19.019531 15.085938 -19.703125 13.390625 -19.703125 C 12.453125 -19.703125 11.679688 -19.53125 11.078125 -19.1875 C 10.472656 -18.84375 9.972656 -18.296875 9.578125 -17.546875 C 9.285156 -16.992188 9.039062 -16.382812 8.84375 -15.71875 C 8.65625 -15.050781 8.503906 -14.304688 8.390625 -13.484375 C 8.273438 -12.671875 8.21875 -11.796875 8.21875 -10.859375 C 8.21875 -8.273438 8.6875 -6.171875 9.625 -4.546875 C 10.050781 -3.828125 10.554688 -3.296875 11.140625 -2.953125 C 11.734375 -2.609375 12.484375 -2.4375 13.390625 -2.4375 C 14.015625 -2.4375 14.550781 -2.519531 15 -2.6875 C 15.457031 -2.851562 15.863281 -3.085938 16.21875 -3.390625 C 16.582031 -3.703125 16.910156 -4.117188 17.203125 -4.640625 Z M 17.203125 -4.640625 "/></g></g></g><g fill="white" fill-opacity="1"><g transform="translate(276.226319, 207.576478)"><g><path d="M 3.71875 0.296875 C 1.664062 -0.847656 0.640625 -2.492188 0.640625 -4.640625 C 0.640625 -5.910156 1.046875 -6.957031 1.859375 -7.78125 C 2.242188 -8.195312 2.707031 -8.507812 3.25 -8.71875 C 3.789062 -8.9375 4.351562 -9.046875 4.9375 -9.046875 C 5.132812 -9.046875 5.320312 -9.03125 5.5 -9 C 5.675781 -8.96875 5.851562 -8.925781 6.03125 -8.875 C 6.21875 -8.820312 6.390625 -8.753906 6.546875 -8.671875 C 6.710938 -8.597656 6.878906 -8.492188 7.046875 -8.359375 C 7.078125 -8.359375 7.148438 -8.316406 7.265625 -8.234375 C 7.378906 -8.148438 7.457031 -8.082031 7.5 -8.03125 C 7.550781 -7.988281 7.625 -7.914062 7.71875 -7.8125 C 7.820312 -7.71875 7.894531 -7.617188 7.9375 -7.515625 C 7.988281 -7.421875 8.039062 -7.300781 8.09375 -7.15625 C 8.144531 -7.007812 8.171875 -6.859375 8.171875 -6.703125 C 8.171875 -6.410156 8.132812 -6.164062 8.0625 -5.96875 C 8 -5.769531 7.925781 -5.644531 7.84375 -5.59375 C 7.757812 -5.550781 7.648438 -5.488281 7.515625 -5.40625 C 7.390625 -5.320312 7.3125 -5.265625 7.28125 -5.234375 C 7.125 -5.066406 7.046875 -4.789062 7.046875 -4.40625 C 7.046875 -3.882812 7.304688 -3.457031 7.828125 -3.125 C 8.503906 -2.664062 9.578125 -2.4375 11.046875 -2.4375 C 12.285156 -2.4375 13.234375 -2.679688 13.890625 -3.171875 C 14.441406 -3.597656 14.71875 -4.21875 14.71875 -5.03125 C 14.71875 -5.289062 14.679688 -5.507812 14.609375 -5.6875 C 14.546875 -5.875 14.453125 -6.046875 14.328125 -6.203125 C 14.128906 -6.398438 13.914062 -6.570312 13.6875 -6.71875 C 13.457031 -6.863281 13.195312 -7.003906 12.90625 -7.140625 C 12.582031 -7.265625 12.164062 -7.410156 11.65625 -7.578125 C 11.15625 -7.742188 10.59375 -7.921875 9.96875 -8.109375 C 9.15625 -8.335938 8.40625 -8.570312 7.71875 -8.8125 C 7.039062 -9.0625 6.441406 -9.300781 5.921875 -9.53125 C 5.296875 -9.789062 4.726562 -10.125 4.21875 -10.53125 C 3.71875 -10.9375 3.253906 -11.421875 2.828125 -11.984375 C 1.953125 -13.085938 1.515625 -14.519531 1.515625 -16.28125 C 1.515625 -17.945312 2.035156 -19.378906 3.078125 -20.578125 C 3.566406 -21.171875 4.128906 -21.675781 4.765625 -22.09375 C 5.398438 -22.519531 6.109375 -22.878906 6.890625 -23.171875 C 7.378906 -23.335938 7.875 -23.476562 8.375 -23.59375 C 8.882812 -23.707031 9.398438 -23.796875 9.921875 -23.859375 C 10.472656 -23.921875 11.03125 -23.953125 11.59375 -23.953125 C 13.738281 -23.953125 15.609375 -23.5 17.203125 -22.59375 C 19.035156 -21.507812 19.953125 -20.007812 19.953125 -18.09375 C 19.953125 -16.914062 19.578125 -15.90625 18.828125 -15.0625 C 18.046875 -14.144531 17.035156 -13.6875 15.796875 -13.6875 C 15.015625 -13.6875 14.3125 -13.914062 13.6875 -14.375 C 13.65625 -14.375 13.582031 -14.414062 13.46875 -14.5 C 13.351562 -14.582031 13.269531 -14.644531 13.21875 -14.6875 C 13.175781 -14.738281 13.101562 -14.8125 13 -14.90625 C 12.90625 -15.007812 12.832031 -15.109375 12.78125 -15.203125 C 12.738281 -15.304688 12.691406 -15.429688 12.640625 -15.578125 C 12.585938 -15.722656 12.5625 -15.875 12.5625 -16.03125 C 12.5625 -16.320312 12.601562 -16.566406 12.6875 -16.765625 C 12.769531 -16.960938 12.847656 -17.082031 12.921875 -17.125 C 13.003906 -17.175781 13.09375 -17.21875 13.1875 -17.25 C 13.289062 -17.289062 13.359375 -17.328125 13.390625 -17.359375 C 13.554688 -17.515625 13.722656 -17.707031 13.890625 -17.9375 C 13.953125 -18.007812 13.984375 -18.125 13.984375 -18.28125 C 13.953125 -18.738281 13.707031 -19.097656 13.25 -19.359375 C 12.632812 -19.722656 11.882812 -19.90625 11 -19.90625 L 10.40625 -19.84375 C 10.019531 -19.8125 9.660156 -19.742188 9.328125 -19.640625 C 9.003906 -19.546875 8.695312 -19.40625 8.40625 -19.21875 C 7.851562 -18.882812 7.578125 -18.441406 7.578125 -17.890625 C 7.578125 -17.535156 7.609375 -17.242188 7.671875 -17.015625 C 7.742188 -16.785156 7.828125 -16.585938 7.921875 -16.421875 C 8.015625 -16.328125 8.109375 -16.226562 8.203125 -16.125 C 8.304688 -16.03125 8.4375 -15.929688 8.59375 -15.828125 C 8.757812 -15.734375 8.957031 -15.640625 9.1875 -15.546875 C 9.550781 -15.378906 10.03125 -15.191406 10.625 -14.984375 C 11.226562 -14.773438 11.957031 -14.539062 12.8125 -14.28125 C 13.226562 -14.113281 13.632812 -13.960938 14.03125 -13.828125 C 14.425781 -13.703125 14.800781 -13.570312 15.15625 -13.4375 C 15.507812 -13.3125 15.84375 -13.179688 16.15625 -13.046875 C 16.46875 -12.921875 16.753906 -12.789062 17.015625 -12.65625 C 18.191406 -12.101562 19.117188 -11.335938 19.796875 -10.359375 C 20.515625 -9.347656 20.875 -8.0625 20.875 -6.5 C 20.875 -5.71875 20.75 -4.957031 20.5 -4.21875 C 20.257812 -3.488281 19.910156 -2.800781 19.453125 -2.15625 C 19.003906 -1.5 18.46875 -0.925781 17.84375 -0.4375 C 17.226562 0.0507812 16.53125 0.457031 15.75 0.78125 C 14.601562 1.300781 13.347656 1.628906 11.984375 1.765625 C 11.554688 1.796875 11.113281 1.8125 10.65625 1.8125 C 7.820312 1.8125 5.507812 1.304688 3.71875 0.296875 Z M 3.71875 0.296875 "/></g></g></g><g fill="white" fill-opacity="1"><g transform="translate(80.474438, 274.188537)"><g><path d="M 27.4375 -54.84375 C 20.882812 -78.507812 16.070312 -95.550781 13 -105.96875 C 11.5 -110.84375 10.085938 -114.082031 8.765625 -115.6875 C 7.648438 -116.769531 5.710938 -117.394531 2.953125 -117.5625 C 2.816406 -117.539062 2.644531 -117.550781 2.4375 -117.59375 C 2.226562 -117.632812 1.988281 -117.632812 1.71875 -117.59375 C 1.457031 -117.550781 1.175781 -117.582031 0.875 -117.6875 C -0.375 -117.789062 -1.582031 -118.101562 -2.75 -118.625 C -3.914062 -119.144531 -4.804688 -120.117188 -5.421875 -121.546875 C -6.140625 -122.828125 -6.457031 -124.640625 -6.375 -126.984375 L -6.171875 -127.015625 L -6.203125 -127.21875 C -6.117188 -128.601562 -5.78125 -129.914062 -5.1875 -131.15625 C -4.601562 -132.40625 -3.691406 -133.457031 -2.453125 -134.3125 C -0.828125 -135.5 1.328125 -136.28125 4.015625 -136.65625 C 15.191406 -138.195312 23.734375 -137.515625 29.640625 -134.609375 C 35.847656 -131.359375 40.332031 -125.1875 43.09375 -116.09375 L 61.171875 -52.0625 L 73.640625 -82.625 L 91.4375 -126.859375 C 91.875 -127.734375 92.1875 -128.46875 92.375 -129.0625 C 91.414062 -129.070312 90.265625 -128.984375 88.921875 -128.796875 L 87.703125 -128.625 C 84.878906 -128.238281 82.609375 -128.742188 80.890625 -130.140625 C 80.421875 -130.628906 80.019531 -131.09375 79.6875 -131.53125 C 79.351562 -131.96875 79.085938 -132.375 78.890625 -132.75 C 78.691406 -133.132812 78.554688 -133.597656 78.484375 -134.140625 C 78.410156 -134.679688 78.390625 -135.09375 78.421875 -135.375 C 78.453125 -135.65625 78.46875 -136.066406 78.46875 -136.609375 C 78.46875 -137.160156 78.457031 -137.503906 78.4375 -137.640625 L 78.609375 -137.859375 C 78.710938 -140.078125 79.398438 -142.023438 80.671875 -143.703125 C 82.148438 -145.960938 84.164062 -147.269531 86.71875 -147.625 L 86.921875 -147.65625 C 95.597656 -148.4375 102.832031 -149.226562 108.625 -150.03125 C 111.1875 -150.382812 116.085938 -151.203125 123.328125 -152.484375 L 127.546875 -153.25 L 127.75 -153.28125 C 131.113281 -153.738281 133.664062 -152.644531 135.40625 -150 C 135.9375 -149.125 136.316406 -148.082031 136.546875 -146.875 C 136.785156 -145.664062 136.828125 -144.644531 136.671875 -143.8125 L 136.6875 -143.609375 L 136.71875 -143.40625 C 136.65625 -142.84375 136.601562 -142.453125 136.5625 -142.234375 C 136.53125 -142.023438 136.445312 -141.671875 136.3125 -141.171875 C 136.175781 -140.679688 136.054688 -140.289062 135.953125 -140 C 135.859375 -139.707031 135.703125 -139.335938 135.484375 -138.890625 C 135.265625 -138.453125 135.007812 -138.039062 134.71875 -137.65625 C 134.4375 -137.28125 134.113281 -136.929688 133.75 -136.609375 C 133.03125 -135.816406 132.179688 -135.253906 131.203125 -134.921875 C 130.222656 -134.585938 129.191406 -134.34375 128.109375 -134.1875 C 123.117188 -133.5 119.410156 -132.226562 116.984375 -130.375 C 114.566406 -128.53125 112.125 -125.113281 109.65625 -120.125 C 106.269531 -111.820312 101.332031 -99.882812 94.84375 -84.3125 C 91.914062 -77.582031 88.742188 -70.207031 85.328125 -62.1875 C 74.054688 -35.382812 65.832031 -15.863281 60.65625 -3.625 L 59.578125 -1 L 56.734375 -0.609375 L 47.234375 0.703125 L 42.796875 1.3125 L 41.578125 -3.046875 C 38.566406 -13.898438 33.851562 -31.164062 27.4375 -54.84375 Z M 27.4375 -54.84375 "/></g></g></g></svg>