<svg width="118" height="118" viewBox="0 0 118 118" fill="none" xmlns="http://www.w3.org/2000/svg">
<g clip-path="url(#clip0_3_126)">
<path d="M89.0857 43.8505H28.8898C23.0493 43.8505 18.3146 48.5852 18.3146 54.4257V96.2617C18.3146 102.102 23.0493 106.837 28.8898 106.837H89.0857C94.9262 106.837 99.6609 102.102 99.6609 96.2617V54.4257C99.6609 48.5852 94.9262 43.8505 89.0857 43.8505Z" fill="black" stroke="black" stroke-width="2.44798" stroke-linecap="round" stroke-linejoin="round"/>
<path d="M59 62.2348C57.2514 62.2416 55.5535 62.8225 54.1672 63.8882C52.7809 64.954 51.783 66.4455 51.3269 68.1336C50.8708 69.8217 50.9818 71.6128 51.6428 73.2317C52.3037 74.8506 53.4781 76.2076 54.9853 77.094V88.4771H63.1126V77.094C64.3051 76.3886 65.2948 75.3867 65.9854 74.1856C66.6761 72.9845 67.0441 71.6251 67.0539 70.2397C67.0539 69.1843 66.8452 68.1394 66.4399 67.165C66.0346 66.1906 65.4405 65.3059 64.692 64.562C63.9435 63.818 63.0553 63.2294 62.0784 62.83C61.1015 62.4306 60.0554 62.2283 59 62.2348Z" fill="white" stroke="black" stroke-width="2.44798" stroke-linecap="round" stroke-linejoin="round"/>
<path d="M32.9289 43.8505V37.4612C32.9289 30.5403 35.6782 23.9028 40.5721 19.0089C45.4659 14.1151 52.1034 11.3658 59.0244 11.3658C65.9453 11.3658 72.5828 14.1151 77.4766 19.0089C82.3705 23.9028 85.1198 30.5403 85.1198 37.4612V43.8505" stroke="black" stroke-width="2.44798" stroke-linecap="round" stroke-linejoin="round"/>
</g>
<defs>
<clipPath id="clip0_3_126">
<rect width="117.503" height="117.503" fill="white" transform="translate(0.248474 0.349854)"/>
</clipPath>
</defs>
</svg>
