<svg id="visual" viewBox="0 0 900 600" width="900" height="600" xmlns="http://www.w3.org/2000/svg" xmlns:xlink="http://www.w3.org/1999/xlink" version="1.1"><rect x="0" y="0" width="900" height="600" fill="#FFFFFF"></rect><path d="M364 0L366.8 16.7C369.7 33.3 375.3 66.7 376.3 100C377.3 133.3 373.7 166.7 383.2 200C392.7 233.3 415.3 266.7 395.7 300C376 333.3 314 366.7 309.7 400C305.3 433.3 358.7 466.7 379.7 500C400.7 533.3 389.3 566.7 383.7 583.3L378 600L0 600L0 583.3C0 566.7 0 533.3 0 500C0 466.7 0 433.3 0 400C0 366.7 0 333.3 0 300C0 266.7 0 233.3 0 200C0 166.7 0 133.3 0 100C0 66.7 0 33.3 0 16.7L0 0Z" fill="#ffb929" stroke-linecap="round" stroke-linejoin="miter"></path></svg>